<svg xmlns="http://www.w3.org/2000/svg" viewBox="0 0 24 24"><title>Audio Library</title><g id="Audio_Library" data-name="Audio Library"><path d="M22.76,7.34C22.32,6.85,23.8,7,2,7A1,1,0,0,0,1,8.14l2,14A1,1,0,0,0,4,23H20a1,1,0,0,0,1-.86C23.15,7,23.18,7.84,22.76,7.34ZM19.13,21H4.87L3.15,9h17.7Z"/><path d="M3,6H21a1,1,0,0,0,0-2H3A1,1,0,0,0,3,6Z"/><path d="M5,3H19a1,1,0,0,0,0-2H5A1,1,0,0,0,5,3Z"/><path d="M9,20a2,2,0,0,0,2-2V12.85l4-.67V15a2,2,0,1,0,2,2V11a1,1,0,0,0-1.16-1l-6,1A1,1,0,0,0,9,12v4a2,2,0,0,0,0,4Z"/></g></svg>